<?xml version="1.0" encoding="utf-8"?>
<!-- Generator: Adobe Illustrator 17.1.0, SVG Export Plug-In . SVG Version: 6.00 Build 0)  -->
<svg version="1.2" baseProfile="tiny" xmlns="http://www.w3.org/2000/svg" xmlns:xlink="http://www.w3.org/1999/xlink" x="0px"
	 y="0px" viewBox="0 0 280.016 60" xml:space="preserve" width="280" height="60">
<g id="Calque_1">
	<g>
		<path fill="#333333" d="M92.934,34.02h-2.996v12.265h-4.4V14.452c3.23-0.141,6.507-0.234,8.895-0.234
			c6.835,0,11.188,3.417,11.188,8.941C105.62,30.181,100.002,34.02,92.934,34.02z M93.729,17.869h-3.792v12.593h3.417
			c4.167,0,7.724-2.341,7.724-6.647C101.079,20.397,98.458,17.869,93.729,17.869z"/>
		<path fill="#333333" d="M133.102,46.285V31.726h-17.228v14.559h-4.4V14.452h4.4V27.84h17.228V14.452h4.354v31.833H133.102z"/>
		<path fill="#333333" d="M154.265,34.02h-2.996v12.265h-4.4V14.452c3.23-0.141,6.507-0.234,8.895-0.234
			c6.835,0,11.188,3.417,11.188,8.941C166.951,30.181,161.333,34.02,154.265,34.02z M155.061,17.869h-3.792v12.593h3.417
			c4.167,0,7.725-2.341,7.725-6.647C162.41,20.397,159.789,17.869,155.061,17.869z"/>
		<path fill="#333333" d="M203.14,46.566h-3.558l-7.35-20.505c-0.608-1.732-1.311-5.243-1.311-5.243s-0.655,3.417-1.312,5.243
			l-7.303,20.505h-3.511l-10.159-32.115h4.916l6.46,21.628c0.469,1.592,1.077,5.103,1.077,5.103s0.608-3.558,1.123-5.103
			l7.304-21.628h3.37l7.443,21.535c0.562,1.638,1.218,5.103,1.218,5.103s0.468-3.417,0.936-5.056l6.414-21.581h4.4L203.14,46.566z"
			/>
		<path fill="#333333" d="M225.661,46.753c-6.46,0-10.673-5.196-10.673-11.891c0-7.115,4.588-12.452,11.609-12.452
			c6.461,0,10.674,5.243,10.674,11.891C237.271,41.417,232.684,46.753,225.661,46.753z M226.083,25.874
			c-4.214,0-6.882,3.839-6.882,8.474c0,4.775,2.668,8.988,6.976,8.988c4.166,0,6.882-3.839,6.882-8.52
			C233.059,30.087,230.483,25.874,226.083,25.874z"/>
		<path fill="#333333" d="M254.501,27.606c-1.171-0.608-2.622-1.03-4.026-1.03c-1.498,0-2.949,0.702-3.745,1.685v18.023h-4.166
			V23.159l3.979-0.421l-0.14,3.371h0.14c1.171-2.153,3.23-3.698,5.618-3.698c1.17,0,2.153,0.281,3.043,0.749L254.501,27.606z"/>
		<path fill="#333333" d="M279.782,46.238c-0.655,0.188-1.686,0.375-2.669,0.375c-1.919,0-3.137-1.171-3.558-2.95h-0.234
			c-1.731,1.919-3.886,3.089-6.741,3.089c-5.945,0-9.784-4.962-9.784-11.656c0-7.35,4.635-12.546,11.798-12.546
			c1.498,0,3.511,0.468,4.541,0.937V9.724h4.166V40.34c0,1.826,0.796,2.809,2.715,2.949L279.782,46.238z M273.135,27.513
			c-1.171-0.936-3.23-1.545-5.197-1.545c-4.072,0-6.928,3.651-6.928,8.38c0,5.43,2.668,8.941,6.788,8.941
			c2.247,0,3.792-0.796,5.337-2.106V27.513z"/>
	</g>
</g>
<g id="Calque_2">
	<rect fill="#00188F" width="59.875" height="60"/>
</g>
<g id="Calque_3">
	<polygon fill="#FFFFFF" points="42.546,19.5 38.804,34.058 34.211,19.5 32.75,19.5 29.547,19.5 28.085,19.5 23.493,34.058 
		19.75,19.5 12.797,19.5 19.456,40.862 26.659,40.862 31.148,27.016 35.638,40.862 42.841,40.862 49.5,19.5 	"/>
	<g>
	</g>
	<g>
	</g>
	<g>
	</g>
	<g>
	</g>
	<g>
	</g>
	<g>
	</g>
</g>
</svg>
